<?xml version="1.0" standalone="no"?>
<!DOCTYPE svg PUBLIC "-//W3C//DTD SVG 20010904//EN"
 "http://www.w3.org/TR/2001/REC-SVG-20010904/DTD/svg10.dtd">
<svg version="1.0" xmlns="http://www.w3.org/2000/svg"
 width="256.000000pt" height="256.000000pt" viewBox="0 0 256.000000 256.000000"
 preserveAspectRatio="xMidYMid meet">
<metadata>
Created by potrace 1.11, written by Peter Selinger 2001-2013
</metadata>
<g transform="translate(0.000000,256.000000) scale(0.100000,-0.100000)"
fill="#000000" stroke="none">
<path d="M0 1280 l0 -1280 1280 0 1280 0 0 1280 0 1280 -1280 0 -1280 0 0
-1280z m1870 777 c301 -106 470 -430 431 -824 -31 -304 -158 -517 -381 -632
-62 -33 -199 -78 -206 -68 -3 4 -94 433 -94 445 0 6 12 12 28 12 75 1 194 95
232 183 46 104 36 268 -20 346 -80 110 -233 99 -296 -22 -9 -16 -37 -121 -64
-235 -57 -240 -76 -300 -127 -391 -45 -82 -151 -187 -223 -223 -290 -144 -643
-14 -794 292 -71 146 -81 196 -80 395 1 155 3 178 28 260 52 171 139 295 265
379 68 45 218 103 243 94 8 -4 30 -84 57 -209 24 -112 45 -209 48 -215 2 -5
-22 -18 -54 -28 -75 -24 -162 -108 -186 -180 -24 -72 -23 -188 4 -242 40 -83
127 -134 203 -120 37 7 98 53 117 88 6 11 26 95 45 187 44 213 58 268 90 349
54 135 157 262 265 325 122 71 321 86 469 34z"/>
</g>
</svg>
