<?xml version="1.0" standalone="no"?>
<!DOCTYPE svg PUBLIC "-//W3C//DTD SVG 20010904//EN"
 "http://www.w3.org/TR/2001/REC-SVG-20010904/DTD/svg10.dtd">
<svg version="1.0" xmlns="http://www.w3.org/2000/svg"
 width="152.000000pt" height="152.000000pt" viewBox="0 0 152.000000 152.000000"
 preserveAspectRatio="xMidYMid meet">
<metadata>
Created by potrace 1.11, written by Peter Selinger 2001-2013
</metadata>
<g transform="translate(0.000000,152.000000) scale(0.100000,-0.100000)"
fill="#000000" stroke="none">
<path d="M0 1470 l0 -49 88 -4 87 -3 -87 -2 c-49 -1 -88 -4 -88 -6 0 -2 20
-38 44 -81 l44 -76 35 58 c19 32 42 73 52 91 9 19 19 32 21 29 5 -5 -98 -196
-106 -197 -3 0 -22 32 -43 70 -21 39 -40 70 -43 70 -2 0 -4 -97 -4 -216 l0
-216 40 4 c22 2 40 3 40 2 0 -1 -18 -33 -40 -70 -34 -58 -40 -77 -40 -124 0
-50 1 -53 13 -31 6 13 25 33 40 45 24 18 29 19 37 6 16 -25 11 -54 -11 -68
-28 -18 -23 -66 8 -70 18 -3 24 5 37 51 19 66 41 87 90 87 93 0 130 -131 55
-194 -35 -30 -45 -32 -53 -10 -9 24 -7 54 4 54 6 0 15 11 22 25 8 19 8 28 -2
40 -22 26 -39 17 -50 -27 -5 -24 -16 -53 -23 -64 -68 -117 -103 -174 -108
-174 -3 0 -18 21 -32 48 l-27 47 0 -257 0 -258 551 0 552 0 -25 20 c-76 59
-68 194 14 236 27 14 29 14 38 -11 14 -38 13 -49 -10 -63 -31 -19 -27 -75 7
-102 77 -60 176 37 109 105 -22 22 -24 29 -15 55 12 34 25 37 54 12 38 -31 55
-66 55 -109 0 -54 -13 -88 -46 -118 l-27 -25 106 0 106 0 -44 75 c-25 42 -45
77 -45 78 0 1 31 1 70 -1 l70 -4 0 686 0 686 -239 0 -240 0 -18 -30 c-9 -16
-20 -30 -23 -30 -3 0 -13 15 -23 32 l-19 33 -41 -77 c-23 -43 -44 -78 -47 -78
-3 0 -23 33 -45 73 l-40 72 -233 2 c-127 1 -232 -1 -232 -5 0 -5 3 -12 8 -18
4 -5 0 -2 -9 8 -14 15 -38 17 -168 17 l-151 1 0 -50z m1342 -77 c-2 -57 0
-103 5 -103 5 0 19 7 31 16 28 19 28 54 1 102 -17 31 -19 42 -10 65 11 27 11
27 41 12 84 -43 83 -184 -1 -247 -34 -25 -97 -33 -143 -18 -163 54 -122 288
49 277 l30 -2 -3 -102z m-781 -41 l137 -7 -54 -90 c-29 -49 -53 -94 -54 -99 0
-4 16 -6 35 -4 19 2 35 3 35 2 0 -5 -64 -120 -90 -161 l-26 -43 -38 66 c-29
49 -42 64 -55 58 -9 -3 -35 -9 -58 -11 -35 -5 -47 -12 -63 -38 -11 -18 -20
-38 -20 -45 0 -7 -7 -18 -16 -25 -23 -17 -64 3 -64 31 0 12 -16 51 -35 87
l-35 66 33 3 32 3 3 108 3 107 34 0 c18 0 36 -4 40 -9 3 -6 19 -4 38 5 17 7
43 11 57 8 14 -3 86 -9 161 -12z m877 -409 c-53 -94 -68 -114 -68 -95 0 6 -17
40 -38 74 -21 35 -44 73 -51 86 l-12 22 110 0 109 0 -50 -87z m-453 23 c52
-22 65 -58 65 -179 l0 -105 -35 -4 c-24 -3 -35 0 -35 9 0 17 -10 16 -34 -2
-11 -8 -37 -15 -59 -15 -46 0 -97 43 -97 83 0 38 44 84 87 91 92 16 94 17 91
39 -4 31 -70 37 -90 8 -9 -13 -25 -19 -46 -19 -26 1 -32 5 -32 23 0 40 64 82
128 84 12 1 38 -5 57 -13z m-319 -536 l1 -210 -39 0 -38 0 0 210 0 210 38 0
37 0 1 -210z m376 68 c-11 -18 -35 -60 -54 -92 -18 -32 -37 -59 -42 -58 -5 0
-19 17 -30 39 -12 21 -33 59 -48 85 -16 26 -28 49 -28 52 0 3 50 6 111 6 l111
0 -20 -32z m313 -68 c-9 -16 -17 -30 -19 -30 -3 0 1 14 7 30 6 17 15 30 19 30
5 0 2 -13 -7 -30z m-37 -65 c-6 -14 -13 -23 -15 -21 -5 5 15 46 22 46 3 0 -1
-11 -7 -25z m-40 -57 c11 15 12 14 2 -5 -6 -13 -13 -23 -15 -23 -2 0 -9 10
-15 23 -9 18 -8 19 2 5 11 -15 13 -15 26 0z m-468 -148 c11 -22 19 -40 16 -40
-4 0 -46 68 -46 76 0 13 12 -1 30 -36z m181 23 c-5 -10 -17 -27 -26 -38 -16
-19 -17 -19 -3 5 26 46 29 50 34 50 3 0 0 -8 -5 -17z m-133 0 c-10 -2 -26 -2
-35 0 -10 3 -2 5 17 5 19 0 27 -2 18 -5z m95 0 c-13 -2 -35 -2 -50 0 -16 2 -5
4 22 4 28 0 40 -2 28 -4z m-98 -103 c9 -16 13 -30 11 -30 -3 0 -12 14 -21 30
-9 17 -13 30 -11 30 3 0 12 -13 21 -30z m75 0 c-6 -11 -13 -20 -16 -20 -2 0 0
9 6 20 6 11 13 20 16 20 2 0 0 -9 -6 -20z m-31 -47 c-7 -10 -14 -19 -15 -21
-1 -2 -4 4 -8 13 -3 9 -2 13 3 10 5 -3 12 -1 16 5 3 5 9 10 12 10 3 0 -1 -8
-8 -17z"/>
<path d="M1247 1402 c-23 -25 -21 -68 4 -93 29 -29 41 -13 37 51 -3 58 -15 71
-41 42z"/>
<path d="M327 1272 c-23 -26 -22 -94 1 -115 22 -20 85 -22 101 -4 28 35 21
107 -13 129 -21 14 -73 8 -89 -10z"/>
<path d="M526 1199 c-9 -47 -8 -49 19 -49 30 0 31 10 6 50 l-18 31 -7 -32z"/>
<path d="M945 805 c-5 -2 -22 -6 -36 -9 -49 -11 -48 -66 1 -66 32 0 60 27 60
58 0 21 -4 24 -25 17z"/>
<path d="M1426 93 c48 -85 53 -92 72 -90 15 1 18 11 20 69 l3 68 -61 0 -61 0
27 -47z"/>
</g>
</svg>
